<svg width="28" height="28" viewBox="0 0 28 28" fill="none" xmlns="http://www.w3.org/2000/svg">
<path d="M28 8.25015L25.3571 5.60726L20.1368 10.8276L17.1724 7.86324L22.3927 2.64289L19.7499 0L14.5295 5.22036L11.1782 1.86909L8.64748 4.39796L23.6002 19.3506L26.1309 16.8218L22.7796 13.4705L28 8.25015ZM21.2844 19.6777L8.32226 6.71563C5.52424 10.0706 2.34866 15.2573 4.54297 19.7189L0.68144 23.5804C0.244978 24.0195 0 24.6135 0 25.2327C0 25.8518 0.244978 26.4458 0.68144 26.8849L1.11507 27.3186C1.5542 27.755 2.1482 28 2.76734 28C3.38648 28 3.98048 27.755 4.41961 27.3186L8.28114 23.457C12.7427 25.6513 17.9275 22.4776 21.2844 19.6777Z" fill="white"/>
</svg>
