<svg width="28" height="28" viewBox="0 0 41 41" fill="none" xmlns="http://www.w3.org/2000/svg">
<path d="M4.58337 21.636H10.5834C11.6442 21.636 12.6617 22.0796 13.4118 22.8692C14.1619 23.6588 14.5834 24.7298 14.5834 25.8465V36.3728C14.5834 37.4895 14.1619 38.5605 13.4118 39.3501C12.6617 40.1397 11.6442 40.5833 10.5834 40.5833H4.58337C3.52251 40.5833 2.50509 40.1397 1.75495 39.3501C1.0048 38.5605 0.583374 37.4895 0.583374 36.3728V21.636C0.583374 10.0086 9.53737 0.583328 20.5834 0.583328C31.6294 0.583328 40.5834 10.0086 40.5834 21.636V36.3728C40.5834 37.4895 40.1619 38.5605 39.4118 39.3501C38.6617 40.1397 37.6442 40.5833 36.5834 40.5833H30.5834C29.5225 40.5833 28.5051 40.1397 27.7549 39.3501C27.0048 38.5605 26.5834 37.4895 26.5834 36.3728V25.8465C26.5834 24.7298 27.0048 23.6588 27.7549 22.8692C28.5051 22.0796 29.5225 21.636 30.5834 21.636H36.5834C36.5834 17.1692 34.8977 12.8853 31.8971 9.72679C28.8965 6.56829 24.8268 4.79385 20.5834 4.79385C16.3399 4.79385 12.2702 6.56829 9.26967 9.72679C6.26908 12.8853 4.58337 17.1692 4.58337 21.636Z" fill="black"/>
</svg>
